HIERARCHY
ROOT Hips
{
	OFFSET 0.00 0.00 0.00
	CHANNELS 6 Xposition Yposition Zposition Xrotation Yrotation Zrotation
	JOINT LeftUpLeg
	{
		OFFSET 3.34807 0.00000 0.00000
		CHANNELS 3 Xrotation Yrotation Zrotation
		JOINT LeftLeg
		{
			OFFSET 0.00000 -16.98552 0.00000
			CHANNELS 3 Xrotation Yrotation Zrotation
			JOINT LeftFoot
			{
				OFFSET 0.00000 -16.83686 0.00000
				CHANNELS 3 Xrotation Yrotation Zrotation
				JOINT LeftToeBase
				{
					OFFSET 0.00000 -1.59599 5.95633
					CHANNELS 3 Xrotation Yrotation Zrotation
					End Site
					{
						OFFSET 0.00000 0.00000 2.95275
					}
				}
			}
		}
	}
	JOINT RightUpLeg
	{
		OFFSET -3.34807 0.00000 0.00000
		CHANNELS 3 Xrotation Yrotation Zrotation
		JOINT RightLeg
		{
			OFFSET 0.00000 -16.98552 0.00000
			CHANNELS 3 Xrotation Yrotation Zrotation
			JOINT RightFoot
			{
				OFFSET 0.00000 -16.83686 0.00000
				CHANNELS 3 Xrotation Yrotation Zrotation
				JOINT RightToeBase
				{
					OFFSET 0.00000 -1.59599 5.95633
					CHANNELS 3 Xrotation Yrotation Zrotation
					End Site
					{
						OFFSET 0.00000 0.00000 2.95275
					}
				}
			}
		}
	}
	JOINT Spine
	{
		OFFSET 0.00000 0.03937 0.00000
		CHANNELS 3 Xrotation Yrotation Zrotation
		JOINT Spine1
		{
			OFFSET 0.00000 7.93124 0.00000
			CHANNELS 3 Xrotation Yrotation Zrotation
			JOINT Neck
			{
				OFFSET 0.00000 8.48368 0.00000
				CHANNELS 3 Xrotation Yrotation Zrotation
				JOINT Head
				{
					OFFSET 0.00000 6.65077 0.00000
					CHANNELS 3 Xrotation Yrotation Zrotation
					End Site
					{
						OFFSET 0.00000 4.52755 0.00000
					}
				}
			}
			JOINT LeftShoulder
			{
				OFFSET 0.00000 8.48368 0.00000
				CHANNELS 3 Xrotation Yrotation Zrotation
				JOINT LeftArm
				{
					OFFSET 7.74502 -0.00003 0.00000
					CHANNELS 3 Xrotation Yrotation Zrotation
					JOINT LeftForeArm
					{
						OFFSET 12.49824 -0.00005 0.00000
						CHANNELS 3 Xrotation Yrotation Zrotation
						JOINT LeftHand
						{
							OFFSET 9.88337 -0.00004 0.00000
							CHANNELS 3 Xrotation Yrotation Zrotation
							JOINT LeftHandThumb
							{
								OFFSET 0.00000 0.00000 0.00000
								CHANNELS 3 Xrotation Yrotation Zrotation
								End Site
								{
									OFFSET 0.00000 0.00000 3.93700
								}
							}
							JOINT L_Wrist_End
							{
								OFFSET 3.93700 -0.00001 0.00000
								CHANNELS 3 Xrotation Yrotation Zrotation
							}
						}
					}
				}
			}
			JOINT RightShoulder
			{
				OFFSET 0.00000 8.48368 0.00000
				CHANNELS 3 Xrotation Yrotation Zrotation
				JOINT RightArm
				{
					OFFSET -7.74502 -0.00003 0.00000
					CHANNELS 3 Xrotation Yrotation Zrotation
					JOINT RightForeArm
					{
						OFFSET -12.49824 -0.00005 0.00000
						CHANNELS 3 Xrotation Yrotation Zrotation
						JOINT RightHand
						{
							OFFSET -9.88337 -0.00004 0.00000
							CHANNELS 3 Xrotation Yrotation Zrotation
							JOINT RightHandThumb
							{
								OFFSET 0.00000 0.00000 0.00000
								CHANNELS 3 Xrotation Yrotation Zrotation
								End Site
								{
									OFFSET 0.00000 0.00000 3.93700
								}
							}
							JOINT R_Wrist_End
							{
								OFFSET -5.39369 -0.00002 0.00000
								CHANNELS 3 Xrotation Yrotation Zrotation
							}
						}
					}
				}
			}
		}
	}
}
MOTION
Frames: 19
Frame Time: 0.066664
 55.2824 32.8701 6.3662 115.7079 -77.2274 110.3505 -44.5137 7.9675 9.3296 46.3358 -0.0000 0.0000 -20.0797 -1.5229 -17.8096 15.1005 0.0000 0.0000 -10.8685 -17.7091 -13.5328 47.4995 0.0000 0.0000 -11.1685 -13.7561 39.9816 -10.3948 0.0000 0.0000 -0.0580 -0.6222 -3.4170 26.2227 -6.8313 -7.9233 -9.1690 4.4203 2.1564 14.3021 -11.6149 3.1259 -6.8263 19.1877 26.9227 12.2169 -39.2269 -73.0489 -0.0004 -59.4974 -0.0002 -4.0139 -34.8218 21.0993 -0.0000 0.0000 -0.0000 -0.0000 0.0000 -0.0000 17.8597 -14.8540 -12.3187 -31.8034 46.3275 90.2236 -0.0002 49.7654 0.0001 63.4966 -75.3380 -136.9139 -0.0000 0.0000 -0.0000 -0.0000 0.0000 -0.0000
 53.7824 33.7621 6.5829 120.3371 -77.0896 113.9373 -38.8385 9.8906 10.2234 40.7617 -0.0000 0.0000 -20.0829 -1.7302 -18.1095 15.8600 0.0000 0.0000 -12.5770 -18.2833 -11.8590 44.2448 -0.0000 0.0000 -11.1010 -14.6561 39.5803 -9.9025 0.0000 -0.0000 -0.0063 -1.0279 -3.2777 24.9534 -6.7430 -7.2037 -9.2311 4.9367 2.3281 14.8071 -11.2429 2.9500 -7.0580 18.9648 27.0838 11.7290 -36.9306 -72.1281 -0.0004 -59.9373 -0.0002 -3.4162 -34.5317 21.2706 -0.0000 0.0000 -0.0000 -0.0000 0.0000 -0.0000 17.8184 -15.0300 -12.5142 -31.2119 46.2744 90.4251 -0.0003 50.4951 0.0001 69.5518 -74.3099 -130.3179 -0.0000 0.0000 -0.0000 -0.0000 0.0000 -0.0000
 52.3597 34.1388 6.7800 123.6463 -77.5124 116.8526 -34.3199 10.7272 10.0315 38.2433 0.0000 0.0000 -21.3146 -1.3219 -17.6376 15.5886 -0.0000 0.0000 -13.6904 -16.9647 -10.3786 42.3858 -0.0000 0.0000 -11.5198 -12.8617 40.6963 -10.3258 -0.0000 0.0000 0.3024 -1.5363 -3.2732 23.4808 -6.7553 -6.4427 -9.0727 5.0155 2.4220 14.5129 -11.1832 2.8779 -7.2646 18.7310 27.0264 10.9087 -35.3341 -70.8160 -0.0004 -59.5561 -0.0002 -3.6552 -34.4733 21.1483 -0.0000 0.0000 -0.0000 -0.0000 0.0000 -0.0000 18.3336 -15.3952 -12.1905 -30.7115 45.6898 90.7820 -0.0002 49.6220 0.0001 63.8464 -74.9966 -133.5190 -0.0000 0.0000 -0.0000 -0.0000 0.0000 -0.0000
 51.0564 34.2121 6.9525 127.0963 -77.9538 120.3483 -30.9095 10.9314 9.3533 37.8907 -0.0000 0.0000 -23.3641 -0.2903 -16.8051 15.1992 -0.0000 0.0000 -15.4149 -16.0457 -9.1844 41.4797 -0.0000 0.0000 -12.6886 -12.6719 40.2791 -10.2446 0.0000 0.0000 0.3877 -1.9276 -3.3299 22.9225 -6.8689 -5.9449 -8.8782 5.0820 2.4079 13.6015 -11.0045 2.9318 -7.7869 18.3735 26.9131 8.8297 -33.0243 -69.8483 -0.0004 -59.1252 -0.0002 -3.5696 -34.6280 21.3256 -0.0000 0.0000 -0.0000 -0.0000 0.0000 -0.0000 18.4660 -15.6642 -11.7377 -31.0770 44.5188 91.8742 -0.0002 48.0108 0.0001 62.0912 -74.4880 -134.2053 -0.0000 0.0000 -0.0000 -0.0000 0.0000 -0.0000
 49.8591 34.0073 7.1401 130.5708 -78.1937 124.0029 -28.7916 9.7613 8.0782 40.0034 -0.0000 0.0000 -26.5742 2.1600 -13.9310 14.5057 -0.0000 0.0000 -17.8090 -16.4460 -8.4958 41.1026 0.0000 -0.0000 -14.1491 -11.2673 40.5754 -10.8383 0.0000 0.0000 0.5796 -2.2197 -3.1939 22.5247 -6.9004 -5.4856 -9.0032 5.0969 2.3989 12.7993 -10.9453 2.7670 -8.3807 17.8696 26.5474 6.2043 -31.2107 -68.2559 -0.0004 -59.0213 -0.0002 -3.9577 -35.6605 21.7475 -0.0000 0.0000 -0.0000 -0.0000 0.0000 -0.0000 18.5359 -15.6502 -11.5460 -31.0684 42.9681 92.1208 -0.0002 47.2759 0.0001 60.0840 -74.2505 -136.0105 -0.0000 0.0000 -0.0000 -0.0000 0.0000 -0.0000
 48.6186 33.3388 7.3943 134.7968 -78.7916 128.9889 -27.5944 5.8730 5.0432 45.5733 -0.0000 0.0000 -31.1007 6.1077 -9.4573 12.7413 -0.0000 0.0000 -19.9800 -15.6558 -9.2788 43.9950 -0.0000 0.0000 -17.0390 -13.5358 36.9168 -8.0850 -0.0000 0.0000 0.9277 -2.4946 -3.2650 22.3188 -6.9617 -5.1118 -9.4310 4.8205 2.6019 11.1840 -11.2873 2.6500 -8.4321 17.2170 26.3760 4.2028 -30.4659 -64.8529 -0.0004 -61.0060 -0.0002 -3.0172 -34.5492 20.6884 -0.0000 0.0000 -0.0000 -0.0000 0.0000 -0.0000 18.6785 -15.9627 -11.1909 -29.8004 43.4221 89.2365 -0.0002 48.0407 0.0001 62.3265 -72.2852 -133.0685 -0.0000 0.0000 -0.0000 -0.0000 0.0000 -0.0000
 47.0513 32.6214 7.6338 144.1458 -79.4449 138.9131 -25.0114 4.8839 3.0101 50.1440 -0.0000 0.0000 -35.2736 8.1235 -7.7503 11.0343 -0.0000 0.0000 -20.2395 -14.6740 -10.9355 50.2324 -0.0000 0.0000 -18.8665 -16.9305 34.8222 -4.8359 0.0000 0.0000 0.8834 -2.7659 -3.5701 22.4437 -6.9003 -4.4421 -10.6327 5.0413 3.7197 9.9534 -12.3350 1.8638 -7.0386 16.3830 28.7451 5.7378 -28.8049 -61.8733 -0.0005 -67.7692 -0.0003 -2.8409 -33.0765 21.9954 -0.0000 0.0000 -0.0000 -0.0000 0.0000 -0.0000 18.6988 -16.7012 -12.2151 -25.1388 46.9579 82.0062 -0.0003 51.0019 0.0001 63.4482 -70.5780 -130.0754 -0.0000 0.0000 -0.0000 -0.0000 0.0000 -0.0000
 44.7854 32.7783 7.8421 161.8987 -78.2267 155.7974 -17.7913 8.8925 4.1740 48.2657 -0.0000 0.0000 -35.2830 7.0014 -9.5799 7.3393 0.0000 -0.0000 -15.6041 -16.1852 -11.9828 49.7859 -0.0000 0.0000 -13.4623 -16.1010 37.4296 -6.2296 0.0000 0.0000 1.1522 -3.1114 -3.0896 19.8077 -6.0800 -2.2793 -11.3352 6.0309 3.7375 12.1466 -12.0593 0.1079 -4.3702 17.9238 31.5962 17.0285 -31.3299 -57.2946 -0.0011 -79.1742 -0.0009 -4.0327 -31.6126 20.9018 -0.0000 0.0000 -0.0000 -0.0000 0.0000 -0.0000 20.0834 -18.0850 -15.8179 -13.3713 49.9571 68.2631 -0.0004 60.7251 0.0002 68.4614 -69.6412 -123.5157 -0.0000 0.0000 -0.0000 -0.0000 0.0000 -0.0000
 42.5684 33.8907 7.9080 169.7946 -75.9381 163.8335 -19.6125 15.1541 7.3521 57.1339 -0.0000 0.0000 -16.7937 2.5057 -14.2290 -13.8345 0.0000 -0.0000 -8.9748 -18.4060 -12.8833 41.0818 0.0000 0.0000 -3.7751 -13.8557 39.3285 -9.3453 -0.0000 0.0000 0.7385 -2.5702 -2.6699 17.9367 -5.2115 -1.6467 -12.0627 6.5004 3.1298 16.3224 -11.5235 -1.9044 -3.4813 20.8562 32.2516 27.1751 -34.0802 -55.4489 -0.0023 -84.7154 -0.0021 -8.3490 -30.9000 18.4549 -0.0000 0.0000 -0.0000 -0.0000 0.0000 -0.0000 20.4620 -18.9267 -18.4679 -4.7729 49.0760 61.6956 -0.0005 66.3868 0.0003 66.8891 -69.2719 -120.5891 -0.0000 0.0000 -0.0000 -0.0000 0.0000 -0.0000
 41.2287 34.6634 7.8869 154.8534 -77.9195 151.1305 -30.9508 18.1915 10.0757 53.7414 -0.0000 0.0000 -16.5128 4.1738 -16.3531 -12.1066 -0.0000 0.0000 -4.3651 -20.2654 -13.2726 30.9783 -0.0000 0.0000 2.1541 -13.8641 41.9479 -10.9092 0.0000 0.0000 -0.5608 -2.0653 -2.7865 19.1080 -5.8244 -3.9477 -12.5391 4.9807 2.3846 17.7940 -12.6173 -2.3219 -4.5112 20.6953 29.9761 25.6215 -36.9425 -58.9265 -0.0010 -78.0141 -0.0008 -9.0728 -29.8577 16.5303 -0.0000 0.0000 -0.0000 -0.0000 0.0000 -0.0000 20.4862 -19.2739 -16.0922 -6.1877 50.1282 65.8603 -0.0004 63.4127 0.0003 65.2554 -69.3233 -122.2110 -0.0000 0.0000 -0.0000 -0.0000 0.0000 -0.0000
 40.3263 34.0761 7.8498 135.4422 -78.8391 132.7231 -39.1083 11.6819 9.7658 36.3960 -0.0000 0.0000 -19.4816 -0.1953 -19.4438 -12.6261 -0.0000 0.0000 -3.6021 -20.7176 -13.4884 29.7171 0.0000 0.0000 -0.7226 -15.3508 44.0602 -10.3597 -0.0000 -0.0000 -0.2675 -1.8242 -2.8179 21.2432 -6.7015 -6.2553 -12.1275 4.5256 2.1194 15.7256 -13.1137 -1.8900 -5.4995 19.7289 29.0255 21.8170 -39.7324 -63.5546 -0.0007 -73.3417 -0.0005 -8.5784 -28.9791 15.9856 -0.0000 0.0000 -0.0000 -0.0000 0.0000 -0.0000 19.9677 -18.6824 -14.6257 -12.4770 51.6339 74.0575 -0.0004 60.6016 0.0002 64.1812 -69.7270 -124.2484 -0.0000 0.0000 -0.0000 -0.0000 0.0000 -0.0000
 38.9077 32.2293 8.0170 139.1194 -77.3503 136.3463 -46.6220 10.6287 12.5306 45.1414 -0.0000 0.0000 -18.3421 -0.1666 -19.7449 -4.0513 0.0000 0.0000 -3.3957 -21.0626 -15.4101 33.4358 -0.0000 0.0000 -11.1890 -16.6962 45.1319 -6.0556 0.0000 -0.0000 -0.2692 -0.8549 -3.2496 24.1767 -6.6689 -7.9240 -10.8866 4.9692 1.7114 13.8063 -12.0855 -1.2152 -5.6635 20.4307 27.9348 21.0165 -41.6669 -65.3427 -0.0007 -73.7955 -0.0005 -6.7902 -28.2488 15.4067 -0.0000 0.0000 -0.0000 -0.0000 0.0000 -0.0000 19.8788 -17.6770 -13.9873 -16.6765 51.0600 78.0769 -0.0004 61.2256 0.0002 61.0725 -72.1212 -127.6811 -0.0000 0.0000 -0.0000 -0.0000 0.0000 -0.0000
 37.3333 30.5715 8.4826 132.1005 -77.1993 129.8055 -53.1313 7.9465 10.7936 59.3003 -0.0000 0.0000 -21.4823 2.2851 -14.0483 14.2487 0.0000 0.0000 -3.4259 -20.1206 -17.0655 37.9735 -0.0000 0.0000 -17.7745 -21.2353 45.9420 -3.2116 0.0000 0.0000 -0.1808 -0.8493 -3.2738 26.2492 -7.4259 -9.0637 -10.0852 4.9774 1.8843 11.0839 -12.1422 -0.6822 -5.7432 19.7256 27.3628 16.1164 -40.7698 -70.6305 -0.0005 -68.6424 -0.0004 -4.2357 -29.9892 18.3411 -0.0000 0.0000 -0.0000 -0.0000 0.0000 -0.0000 20.2839 -17.6141 -12.3596 -20.7921 46.6085 82.3604 -0.0004 59.2365 0.0002 54.2506 -74.2692 -136.4627 -0.0000 -0.0000 0.0000 -0.0000 -0.0000 0.0000
 35.8359 30.2254 9.0090 129.9587 -76.0598 127.2696 -53.7273 6.3794 9.2756 63.8936 -0.0000 0.0000 -25.5634 4.5334 -12.4255 14.3334 0.0000 0.0000 -5.2545 -17.1018 -18.2213 43.6760 -0.0000 0.0000 -11.7686 -21.4812 48.1062 -8.5538 0.0000 0.0000 0.0400 -0.7811 -3.1608 27.1013 -7.3183 -9.0493 -9.9146 5.2571 2.0192 11.5996 -11.7081 -0.1991 -6.3859 19.2096 27.1480 10.7188 -38.3509 -76.2954 -0.0004 -62.0876 -0.0002 -1.1339 -31.1726 20.8841 -0.0000 0.0000 -0.0000 -0.0000 0.0000 -0.0000 19.4996 -16.6271 -12.3328 -25.5938 44.4952 87.3453 -0.0003 54.8622 0.0002 53.2383 -74.3231 -138.7433 -0.0000 0.0000 -0.0000 -0.0000 0.0000 -0.0000
 34.5211 30.8757 9.3231 125.5320 -75.3651 122.1003 -51.0278 5.7947 8.1952 61.4855 -0.0000 0.0000 -26.8842 5.0301 -11.2148 13.9702 -0.0000 0.0000 -7.4733 -16.3943 -17.9992 46.4882 -0.0000 -0.0000 -4.9598 -21.0895 41.5687 -9.3672 0.0000 -0.0000 0.1412 -0.8821 -3.1566 27.2203 -6.9420 -8.3638 -9.7565 4.8551 2.3531 11.7257 -12.1872 0.4336 -6.6741 18.5547 27.6473 8.9882 -35.8742 -77.7309 -0.0004 -62.5509 -0.0002 -0.5270 -32.5587 22.6793 -0.0000 0.0000 -0.0000 -0.0000 0.0000 -0.0000 19.1537 -16.3581 -12.2798 -27.5726 43.0903 89.7593 -0.0003 55.7915 0.0002 54.4650 -74.9710 -139.1424 -0.0000 -0.0000 0.0000 -0.0000 -0.0000 0.0000
 33.3638 31.9199 9.5083 122.2093 -74.7682 118.3032 -46.4666 5.3225 7.1251 55.4132 -0.0000 0.0000 -26.5087 5.4807 -10.3543 14.2196 0.0000 0.0000 -9.8111 -16.4094 -16.2452 46.6760 -0.0000 0.0000 -8.9646 -23.8063 36.7582 -6.8286 -0.0000 -0.0000 0.2848 -1.2574 -3.0940 26.4856 -6.9567 -7.8353 -9.4749 4.8742 2.4829 11.3790 -12.2872 0.6964 -6.4902 18.7002 27.7163 8.8511 -32.7663 -76.3852 -0.0005 -65.5795 -0.0003 -0.8796 -33.6778 24.2846 -0.0000 -0.0000 0.0000 -0.0000 -0.0000 0.0000 19.0209 -16.4503 -12.3460 -28.0315 42.6157 90.4618 -0.0003 58.4576 0.0002 60.3233 -74.0932 -134.4553 -0.0000 0.0000 -0.0000 -0.0000 0.0000 -0.0000
 32.2823 32.9043 9.6538 122.5804 -74.4516 118.4071 -40.9039 4.3035 5.9221 48.5932 -0.0000 0.0000 -25.4779 6.7318 -8.7885 13.7648 0.0000 -0.0000 -13.0153 -15.3379 -14.1693 47.5465 -0.0000 0.0000 -11.8831 -26.0861 34.3283 -6.1383 0.0000 -0.0000 0.3468 -1.5579 -3.0428 25.7978 -6.9443 -7.3603 -9.2223 5.0041 2.6452 11.2947 -12.2897 0.9815 -6.7099 18.6054 27.8042 8.7926 -30.0362 -74.2668 -0.0005 -67.7128 -0.0003 -1.3966 -33.8534 23.8152 -0.0000 0.0000 -0.0000 -0.0000 0.0000 -0.0000 19.1308 -16.6118 -12.4147 -27.7558 42.4549 90.2390 -0.0004 59.6718 0.0002 62.7827 -73.8059 -132.1243 -0.0000 0.0000 -0.0000 -0.0000 0.0000 -0.0000
 31.2099 33.5776 9.7585 128.9104 -74.3440 124.2826 -35.2746 4.5576 5.8767 43.3382 -0.0000 0.0000 -25.0577 7.7151 -7.5004 12.9927 0.0000 -0.0000 -16.5308 -12.9155 -11.9787 48.5967 -0.0000 0.0000 -13.3858 -21.5404 34.8468 -6.9063 -0.0000 0.0000 0.4187 -1.8045 -3.0881 25.4994 -6.7377 -6.6371 -8.8157 5.6391 2.8525 10.9040 -12.1387 0.7092 -6.6657 18.7094 27.7744 8.3294 -28.0267 -71.9254 -0.0006 -69.5716 -0.0004 -1.7566 -33.6058 23.6184 -0.0000 0.0000 -0.0000 -0.0000 0.0000 -0.0000 19.3307 -16.6667 -12.4683 -27.3032 42.5378 89.3406 -0.0004 59.3392 0.0002 61.5132 -73.9053 -133.8360 -0.0000 -0.0000 0.0000 -0.0000 -0.0000 0.0000
 30.1141 33.9785 9.8284 135.7854 -74.4501 130.8962 -30.1556 6.2859 6.1341 39.5742 -0.0000 0.0000 -25.2717 7.5438 -6.6329 12.0470 -0.0000 0.0000 -20.1447 -12.4458 -10.4399 47.8348 -0.0000 0.0000 -14.9295 -18.8818 35.1643 -7.6282 -0.0000 0.0000 0.4684 -2.3399 -3.0647 25.2363 -6.8153 -5.8358 -8.4087 6.2642 2.8167 10.8580 -11.7131 0.3115 -6.8985 18.6183 27.5768 7.5586 -26.7562 -69.5313 -0.0006 -70.3021 -0.0004 -1.6558 -33.9254 22.8895 -0.0000 0.0000 -0.0000 -0.0000 0.0000 -0.0000 19.7379 -17.0863 -12.1748 -26.8752 41.8064 88.5026 -0.0003 58.0501 0.0002 61.5669 -73.7577 -134.3036 -0.0000 0.0000 -0.0000 -0.0000 0.0000 -0.0000
